<svg xmlns="http://www.w3.org/2000/svg" version="1.1" xmlns:xlink="http://www.w3.org/1999/xlink" xmlns:svgjs="http://svgjs.dev/svgjs" width="100%" height="100%" viewBox="0 0 1000 600"><rect width="1000" height="600" x="0" y="0" fill="transparent"/><g><rect width="333.3333333333333" height="333.3333333333333" rx="13.333333333333334" ry="13.333333333333334" y="269.7970968693495" fill="#f45905" transform="matrix(0.5048977713496812,0,0,0.5048977713496812,0,79.63042636936794)" x="247.57485961914062"/><path d="M382.3888680161511 509.5909151946977L306.06347625312713 509.5909151946977Q301.91441758424247 509.5909151946977 299.6381978978405 507.1994438786044Q297.33316530401567 504.8079725625112 297.33316530401567 500.65891389362656L297.33316530401567 500.65891389362656L297.33316530401567 371.23133375036366Q297.33316530401567 366.8517718220965 299.52294626814927 364.5755521356945Q301.7127272322828 362.29933244929254 305.8617859011675 362.29933244929254L305.8617859011675 362.29933244929254Q310.01084457005214 362.29933244929254 312.17181262676286 364.5755521356945Q314.36159359089646 366.8517718220965 314.36159359089646 371.23133375036366L314.36159359089646 371.23133375036366L314.36159359089646 494.66582914968205L382.3888680161511 494.66582914968205Q386.1345459811164 494.66582914968205 388.2090753155587 496.6251068544331Q390.28360465000105 498.58438455918423 390.28360465000105 502.1283721721898L390.28360465000105 502.1283721721898Q390.28360465000105 505.64354687777274 388.2090753155587 507.6316374899466Q386.1345459811164 509.5909151946977 382.3888680161511 509.5909151946977L382.3888680161511 509.5909151946977ZM463.9293960227036 511.4637541771803L463.9293960227036 511.4637541771803Q443.5874833821997 511.4637541771803 428.54714570749286 502.2148108944583Q413.50680803278595 492.9946805191591 405.3239423247079 476.1967554916608Q397.14107661662985 459.39883046416253 397.14107661662985 436.34850452591445L397.14107661662985 436.34850452591445Q397.14107661662985 418.9455084425372 401.8087676191251 405.1441257870111Q406.47645862162034 391.3427431314851 415.1779566633089 381.6904191448437Q423.87945470499756 372.03809515820234 436.2401919893831 366.76533309982807Q448.5721163663459 361.463758134031 463.9293960227036 361.463758134031L463.9293960227036 361.463758134031Q484.6746893671269 361.463758134031 499.71502704183376 370.5974497870618Q514.7553647165406 379.73114144009264 522.9382304246187 396.4138148378997Q531.1499090401196 413.12530114312955 531.1499090401196 436.1468141739548L531.1499090401196 436.1468141739548Q531.1499090401196 453.5786231647549 526.3669664079331 467.46644454254937Q521.6128366831695 481.3830788277666 512.8825257340579 491.1218415366764Q504.1810276923693 500.889417153009 491.8202904079838 506.16217921138326Q479.4883660310211 511.4637541771803 463.9293960227036 511.4637541771803ZM463.9293960227036 496.30816487278224L463.9293960227036 496.30816487278224Q479.69005638298074 496.30816487278224 490.5813353888029 489.24900255419374Q501.47261439462517 482.2186531430281 507.29282169403274 468.73421246915296Q513.0842160860177 455.24977179527787 513.0842160860177 436.34850452591445L513.0842160860177 436.34850452591445Q513.0842160860177 407.9389778070237 500.34891100513556 392.264756169015Q487.58479301683076 376.61934743842914 463.9293960227036 376.61934743842914L463.9293960227036 376.61934743842914Q448.5721163663459 376.61934743842914 437.68083736052364 383.6785097570176Q426.7895583547014 390.70885916818327 420.9981639627166 404.1068611197899Q415.1779566633089 417.47605016397387 415.1779566633089 436.34850452591445L415.1779566633089 436.34850452591445Q415.1779566633089 464.5851538002683 428.0285133738822 480.4322528828139Q440.9078829918784 496.30816487278224 463.9293960227036 496.30816487278224Z " fill="#2a1a5e" transform="matrix(0.5048977713496812,0,0,0.5048977713496812,0,79.63042636936794)"/><path d="M673.4016210628038 511.0303154812704L673.4016210628038 511.0303154812704Q669.0382999172482 511.0303154812704 666.6399180955189 508.66082982606804Q664.2415362737897 506.2624480043388 664.2415362737897 501.6679575265684L664.2415362737897 501.6679575265684L664.2415362737897 372.2709238192977Q664.2415362737897 367.7053295080541 666.6399180955189 365.30694768632486Q669.0382999172482 362.9085658645957 673.6038942284918 362.9085658645957L673.6038942284918 362.9085658645957L749.1384735296988 362.9085658645957Q752.6638058459755 362.9085658645957 754.5420566702214 364.78681668884144Q756.4203074944671 366.66506751308725 756.4203074944671 369.98812666367587L756.4203074944671 369.98812666367587Q756.4203074944671 373.5134589799526 754.5420566702214 375.3917098041984Q752.6638058459755 377.26996062844415 749.1384735296988 377.26996062844415L749.1384735296988 377.26996062844415L681.3191706911629 377.26996062844415L681.3191706911629 428.4450715475099L744.7751523841433 428.4450715475099Q748.3004847004199 428.4450715475099 750.2943201907732 430.32332237175564Q752.2592595145995 432.20157319600145 752.2592595145995 435.5246323465901L752.2592595145995 435.5246323465901Q752.2592595145995 439.0499646628668 750.2943201907732 440.9282154871126Q748.3004847004199 442.8064663113584 744.7751523841433 442.8064663113584L744.7751523841433 442.8064663113584L681.3191706911629 442.8064663113584L681.3191706911629 501.6679575265684Q681.3191706911629 511.0303154812704 673.4016210628038 511.0303154812704ZM782.4268573686395 511.0303154812704L782.4268573686395 511.0303154812704Q778.2658093887719 511.0303154812704 776.0697007327306 508.7475183256486Q773.9024882432163 506.46472117002685 773.9024882432163 502.30367319015926L773.9024882432163 502.30367319015926L773.9024882432163 415.55738127653115Q773.9024882432163 411.3963332966636 775.98301223315 409.20022464062237Q778.0635362230839 407.0041159845812 782.0223110372635 407.0041159845812L782.0223110372635 407.0041159845812Q785.9521896849162 407.0041159845812 788.1482983409574 409.20022464062237Q790.3444069969985 411.3963332966636 790.3444069969985 415.55738127653115L790.3444069969985 415.55738127653115L790.3444069969985 432.40384636168943L788.2638830070648 432.40384636168943Q791.5869421576535 420.12297558777476 800.9493001123556 413.4768572865974Q810.3116580670576 406.80184281889314 824.0373371673152 406.39729648751717L824.0373371673152 406.39729648751717Q827.1581231522159 406.1950233218291 829.0363739764616 407.75541631427944Q830.9146248007073 409.3158093067298 831.1168979663953 413.0434147886945L831.1168979663953 413.0434147886945Q831.3191711320833 416.59764327149804 829.4409203078376 418.67816726143184Q827.5626694835919 420.75869125136563 823.6327908359392 421.16323758274166L823.6327908359392 421.16323758274166L820.2808355188236 421.5677839141177Q806.15061008719 422.8392152412994 798.5509182906262 430.6411802035511Q790.9512264940627 438.44314516580283 790.9512264940627 451.9665511003724L790.9512264940627 451.9665511003724L790.9512264940627 502.30367319015926Q790.9512264940627 506.46472117002685 788.7840140045482 508.7475183256486Q786.5879053485071 511.0303154812704 782.4268573686395 511.0303154812704ZM889.1692965188533 511.4637579791733L889.1692965188533 511.4637579791733Q874.374459257102 511.4637579791733 863.5672929760569 505.0199128436839Q852.7601266950121 498.5471715416677 846.8075163904793 486.8153279317633Q840.8838022524735 475.05458815533206 840.8838022524735 459.01721573292576L840.8838022524735 459.01721573292576Q840.8838022524735 446.96751429122594 844.206861403062 437.2872985047285Q847.5588167201777 427.60708271823097 854.0026618556669 420.75869125136563Q860.4465069911564 413.8814036179734 869.288733948375 410.24048663558926Q878.1309609055936 406.59956965320515 889.1692965188533 406.59956965320515L889.1692965188533 406.59956965320515Q903.9352376140778 406.59956965320515 914.7424038951228 413.0434147886945Q925.5784663426946 419.4872599241839 931.5021804807004 431.24799970061514Q937.4258946187065 443.0087394770464 937.4258946187065 459.01721573292576L937.4258946187065 459.01721573292576Q937.4258946187065 471.09581334115245 934.1028354681177 480.6604444615425Q930.779776317529 490.2250755819326 924.3070350155128 497.2179478814322Q917.8631898800236 504.181924014405 909.020962922805 507.8228409967891Q900.1787359655864 511.4637579791733 889.1692965188533 511.4637579791733ZM889.1692965188533 497.9403520446037L889.1692965188533 497.9403520446037Q898.5316544735554 497.9403520446037 905.5823191061088 493.3458615668332Q912.6618799051889 488.78026725558965 916.5050700532611 480.0536249644785Q920.3771563678602 471.2980865068405 920.3771563678602 459.01721573292576L920.3771563678602 459.01721573292576Q920.3771563678602 440.09022665783374 911.9394757420175 430.12104920606765Q903.5017951161749 420.12297558777476 889.1692965188533 420.12297558777476L889.1692965188533 420.12297558777476Q879.5757692319364 420.12297558777476 872.6117930989637 424.6018813994378Q865.6478169659908 429.08078721110076 861.8046268179187 437.6918448361045Q857.9614366698465 446.33179862763507 857.9614366698465 459.01721573292576L857.9614366698465 459.01721573292576Q857.9614366698465 477.74193164232986 866.4858057952697 487.8555899267302Q875.0101749206929 497.9403520446037 889.1692965188533 497.9403520446037ZM971.5522672869258 511.0303154812704L971.5522672869258 511.0303154812704Q967.3912193070582 511.0303154812704 965.3106953171246 508.7475183256486Q963.2301713271906 506.46472117002685 963.2301713271906 502.30367319015926L963.2301713271906 502.30367319015926L963.2301713271906 415.55738127653115Q963.2301713271906 411.3963332966636 965.3106953171246 409.20022464062237Q967.3912193070582 407.0041159845812 971.3499941212378 407.0041159845812L971.3499941212378 407.0041159845812Q975.2798727688905 407.0041159845812 977.4759814249319 409.20022464062237Q979.672090080973 411.3963332966636 979.672090080973 415.55738127653115L979.672090080973 415.55738127653115L979.672090080973 433.84865468803235L977.3603967588244 430.9301418688197Q981.3191715730038 419.28498675849585 990.1613985302224 412.95672628911393Q999.003625487441 406.59956965320515 1011.2844962613558 406.59956965320515L1011.2844962613558 406.59956965320515Q1024.1721865323345 406.59956965320515 1032.205320826801 412.7255569568991Q1040.2095589547407 418.8804404271198 1042.8969024417386 431.76813069809856L1042.8969024417386 431.76813069809856L1039.7761164568378 431.76813069809856Q1043.5326181053294 420.12297558777476 1053.212833891827 413.36127262048996Q1062.8930496783244 406.59956965320515 1075.780739949303 406.59956965320515L1075.780739949303 406.59956965320515Q1087.223621893939 406.59956965320515 1094.6210405248146 410.9628907987607Q1101.9895629891635 415.3262119443163 1105.746064637655 424.1684389015349Q1109.4736701196198 433.0106658587535 1109.4736701196198 446.5340717933231L1109.4736701196198 446.5340717933231L1109.4736701196198 502.30367319015926Q1109.4736701196198 506.46472117002685 1107.3064576301053 508.7475183256486Q1105.1103489740642 511.0303154812704 1100.9493009941964 511.0303154812704L1100.9493009941964 511.0303154812704Q1096.990526180017 511.0303154812704 1094.8233136905026 508.7475183256486Q1092.6272050344614 506.46472117002685 1092.6272050344614 502.30367319015926L1092.6272050344614 502.30367319015926L1092.6272050344614 447.37206062260196Q1092.6272050344614 433.44410835665633 1087.85933755753 426.88467855505957Q1083.0625739140712 420.32524875346274 1071.6196919694355 420.32524875346274L1071.6196919694355 420.32524875346274Q1059.1365480298327 420.32524875346274 1051.970298731172 428.96520254499336Q1044.7751532659843 437.6051563365239 1044.7751532659843 452.3710974317484L1044.7751532659843 452.3710974317484L1044.7751532659843 502.30367319015926Q1044.7751532659843 506.46472117002685 1042.60794077647 508.7475183256486Q1040.4118321204287 511.0303154812704 1036.250784140561 511.0303154812704L1036.250784140561 511.0303154812704Q1032.2920093263817 511.0303154812704 1030.1247968368673 508.7475183256486Q1027.9286881808262 506.46472117002685 1027.9286881808262 502.30367319015926L1027.9286881808262 502.30367319015926L1027.9286881808262 447.37206062260196Q1027.9286881808262 433.44410835665633 1023.0452360377869 426.88467855505957Q1018.1617838947479 420.32524875346274 1006.9211751158002 420.32524875346274L1006.9211751158002 420.32524875346274Q994.4380311761975 420.32524875346274 987.2428857110099 428.96520254499336Q980.076636412349 437.6051563365239 980.076636412349 452.3710974317484L980.076636412349 452.3710974317484L980.076636412349 502.30367319015926Q980.076636412349 511.0303154812704 971.5522672869258 511.0303154812704ZM1205.4089429887886 511.0303154812704L1205.4089429887886 511.0303154812704Q1201.247895008921 511.0303154812704 1199.0517863528798 508.66082982606804Q1196.8556776968387 506.2624480043388 1196.8556776968387 502.1014000244712L1196.8556776968387 502.1014000244712L1196.8556776968387 370.39267299505195Q1196.8556776968387 366.0293518494964 1199.0517863528798 363.74655469387454Q1201.247895008921 361.46375753825276 1205.4089429887886 361.46375753825276L1205.4089429887886 361.46375753825276Q1209.5699909686562 361.46375753825276 1211.7372034581706 363.74655469387454Q1213.9333121142117 366.0293518494964 1213.9333121142117 370.39267299505195L1213.9333121142117 370.39267299505195L1213.9333121142117 427.809355883919L1301.9221391884948 427.809355883919L1301.9221391884948 370.39267299505195Q1301.9221391884948 366.0293518494964 1304.118247844536 363.74655469387454Q1306.3143565005773 361.46375753825276 1310.475404480445 361.46375753825276L1310.475404480445 361.46375753825276Q1314.6364524603125 361.46375753825276 1316.8036649498267 363.74655469387454Q1318.9997736058679 366.0293518494964 1318.9997736058679 370.39267299505195L1318.9997736058679 370.39267299505195L1318.9997736058679 502.1014000244712Q1318.9997736058679 506.2624480043388 1316.8036649498267 508.66082982606804Q1314.6364524603125 511.0303154812704 1310.475404480445 511.0303154812704L1310.475404480445 511.0303154812704Q1306.3143565005773 511.0303154812704 1304.118247844536 508.66082982606804Q1301.9221391884948 506.2624480043388 1301.9221391884948 502.1014000244712L1301.9221391884948 502.1014000244712L1301.9221391884948 442.60419314567037L1213.9333121142117 442.60419314567037L1213.9333121142117 502.1014000244712Q1213.9333121142117 506.2624480043388 1211.852788124278 508.66082982606804Q1209.7722641343444 511.0303154812704 1205.4089429887886 511.0303154812704ZM1394.938899238451 511.4637579791733L1394.938899238451 511.4637579791733Q1380.1729581432267 511.4637579791733 1369.336895695655 505.0199128436839Q1358.5297294146098 498.5471715416677 1352.6060152766038 486.8153279317633Q1346.653404972071 475.05458815533206 1346.653404972071 459.01721573292576L1346.653404972071 459.01721573292576Q1346.653404972071 446.96751429122594 1350.005360289187 437.2872985047285Q1353.3284194397754 427.60708271823097 1359.772264575265 420.75869125136563Q1366.2161097107542 413.8814036179734 1375.0583366679728 410.24048663558926Q1383.9005636251914 406.59956965320515 1394.938899238451 406.59956965320515L1394.938899238451 406.59956965320515Q1409.7048403336757 406.59956965320515 1420.5120066147206 413.0434147886945Q1431.3480690622926 419.4872599241839 1437.2717832002984 431.24799970061514Q1443.1954973383042 443.0087394770464 1443.1954973383042 459.01721573292576L1443.1954973383042 459.01721573292576Q1443.1954973383042 471.09581334115245 1439.8724381877155 480.6604444615425Q1436.5493790371268 490.2250755819326 1430.1055339016375 497.2179478814322Q1423.6327925996213 504.181924014405 1414.7905656424025 507.8228409967891Q1405.9483386851841 511.4637579791733 1394.938899238451 511.4637579791733ZM1394.938899238451 497.9403520446037L1394.938899238451 497.9403520446037Q1404.3012571931533 497.9403520446037 1411.3808179922332 493.3458615668332Q1418.4314826247867 488.78026725558965 1422.3035689393857 480.0536249644785Q1426.146759087458 471.2980865068405 1426.146759087458 459.01721573292576L1426.146759087458 459.01721573292576Q1426.146759087458 440.09022665783374 1417.7090784616153 430.12104920606765Q1409.3002940022996 420.12297558777476 1394.938899238451 420.12297558777476L1394.938899238451 420.12297558777476Q1385.374268118061 420.12297558777476 1378.3813958185613 424.6018813994378Q1371.4174196855886 429.08078721110076 1367.5742295375164 437.6918448361045Q1363.7310393894443 446.33179862763507 1363.7310393894443 459.01721573292576L1363.7310393894443 459.01721573292576Q1363.7310393894443 477.74193164232986 1372.2554085148674 487.8555899267302Q1380.7797776402906 497.9403520446037 1394.938899238451 497.9403520446037ZM1477.3218700065238 511.0303154812704L1477.3218700065238 511.0303154812704Q1473.160822026656 511.0303154812704 1471.0802980367223 508.7475183256486Q1468.9997740467886 506.46472117002685 1468.9997740467886 502.30367319015926L1468.9997740467886 502.30367319015926L1468.9997740467886 415.55738127653115Q1468.9997740467886 411.3963332966636 1471.0802980367223 409.20022464062237Q1473.160822026656 407.0041159845812 1477.1195968408356 407.0041159845812L1477.1195968408356 407.0041159845812Q1481.0783716550152 407.0041159845812 1483.2455841445296 409.20022464062237Q1485.4416928005705 411.3963332966636 1485.4416928005705 415.55738127653115L1485.4416928005705 415.55738127653115L1485.4416928005705 433.84865468803235L1483.158895644949 430.9301418688197Q1487.0887742926016 419.28498675849585 1495.9310012498202 412.95672628911393Q1504.7732282070388 406.59956965320515 1517.0540989809535 406.59956965320515L1517.0540989809535 406.59956965320515Q1529.9706854184592 406.59956965320515 1537.974923546399 412.7255569568991Q1545.9791616743385 418.8804404271198 1548.6954013278632 431.76813069809856L1548.6954013278632 431.76813069809856L1545.5746153429625 431.76813069809856Q1549.3022208249274 420.12297558777476 1558.9824366114246 413.36127262048996Q1568.662652397922 406.59956965320515 1581.5503426689008 406.59956965320515L1581.5503426689008 406.59956965320515Q1592.9932246135368 406.59956965320515 1600.3906432444126 410.9628907987607Q1607.7591657087612 415.3262119443163 1611.5156673572526 424.1684389015349Q1615.2721690057444 433.0106658587535 1615.2721690057444 446.5340717933231L1615.2721690057444 446.5340717933231L1615.2721690057444 502.30367319015926Q1615.2721690057444 506.46472117002685 1613.076060349703 508.7475183256486Q1610.8799516936617 511.0303154812704 1606.7189037137944 511.0303154812704L1606.7189037137944 511.0303154812704Q1602.7890250661414 511.0303154812704 1600.5929164101003 508.7475183256486Q1598.3968077540592 506.46472117002685 1598.3968077540592 502.30367319015926L1598.3968077540592 502.30367319015926L1598.3968077540592 447.37206062260196Q1598.3968077540592 433.44410835665633 1593.6289402771274 426.88467855505957Q1588.8321766336692 420.32524875346274 1577.3892946890332 420.32524875346274L1577.3892946890332 420.32524875346274Q1564.9061507494305 420.32524875346274 1557.7399014507698 428.96520254499336Q1550.5447559855822 437.6051563365239 1550.5447559855822 452.3710974317484L1550.5447559855822 452.3710974317484L1550.5447559855822 502.30367319015926Q1550.5447559855822 506.46472117002685 1548.3775434960678 508.7475183256486Q1546.1814348400267 511.0303154812704 1542.0203868601589 511.0303154812704L1542.0203868601589 511.0303154812704Q1538.0616120459795 511.0303154812704 1535.8943995564653 508.7475183256486Q1533.698290900424 506.46472117002685 1533.698290900424 502.30367319015926L1533.698290900424 502.30367319015926L1533.698290900424 447.37206062260196Q1533.698290900424 433.44410835665633 1528.814838757385 426.88467855505957Q1523.9313866143457 420.32524875346274 1512.690777835398 420.32524875346274L1512.690777835398 420.32524875346274Q1500.2076338957952 420.32524875346274 1493.0413845971345 428.96520254499336Q1485.8462391319465 437.6051563365239 1485.8462391319465 452.3710974317484L1485.8462391319465 452.3710974317484L1485.8462391319465 502.30367319015926Q1485.8462391319465 511.0303154812704 1477.3218700065238 511.0303154812704ZM1692.2515566332943 511.4637579791733L1692.2515566332943 511.4637579791733Q1676.2141842108883 511.4637579791733 1664.6846137666719 505.10660134326446Q1653.1261471559285 498.77834087388254 1646.7689905200198 487.1042895970319Q1640.4407300506375 475.459134486708 1640.4407300506375 459.24838506514067L1640.4407300506375 459.24838506514067Q1640.4407300506375 443.4132858084224 1646.682302020439 431.681442198518Q1652.9238739902405 419.9207024220867 1663.846624937393 413.2456879543825Q1674.769375884545 406.59956965320515 1689.1307706483938 406.59956965320515L1689.1307706483938 406.59956965320515Q1699.3022212658477 406.59956965320515 1707.422044059895 410.0382134699013Q1715.541866853942 413.4768572865974 1721.26330782626 419.9207024220867Q1726.9847487985778 426.3645475575761 1729.989950117371 435.5246323465901Q1733.0240476026913 444.68471713560416 1733.0240476026913 456.12759908024L1733.0240476026913 456.12759908024Q1733.0240476026913 459.45065823082865 1731.1457967784456 461.011051223279Q1729.2675459541995 462.57144421572934 1725.742213637923 462.57144421572934L1725.742213637923 462.57144421572934L1653.3284203216165 462.57144421572934L1653.3284203216165 451.53310860246955L1721.7834388237436 451.53310860246955L1718.4603796731546 454.2493482559942Q1718.4603796731546 443.0087394770464 1715.1373205225661 435.2067745147947Q1711.7853652054503 427.404809552543 1705.4571047360685 423.2437615726754Q1699.0999481001597 419.08271359280786 1689.5353169797697 419.08271359280786L1689.5353169797697 419.08271359280786Q1678.930423864413 419.08271359280786 1671.533005233537 423.96616573584686Q1664.1644827691882 428.8496178788859 1660.4079811206968 437.48957167041647Q1656.651479472205 446.129525461947 1656.651479472205 457.57240740658284L1656.651479472205 457.57240740658284L1656.651479472205 458.8149425672378Q1656.651479472205 477.9731009745447 1665.9271489273267 487.9422784263108Q1675.173922215921 497.9403520446037 1692.2515566332943 497.9403520446037L1692.2515566332943 497.9403520446037Q1699.3022212658477 497.9403520446037 1706.2950935653473 496.0621012203579Q1713.25906969832 494.1838503961121 1719.9051879994975 489.8205292505565L1719.9051879994975 489.8205292505565Q1722.8237008187104 487.9422784263108 1725.2220826404393 488.0578630924182Q1727.6204644621687 488.1445515919988 1729.0652727885115 489.5026714187611Q1730.5100811148543 490.86079124552344 1731.030212112338 492.8257305693498Q1731.5503431098216 494.819566059703 1730.625665780962 497.10236321532483Q1729.7009884521024 499.3851603709466 1726.9847487985778 501.0611380295043L1726.9847487985778 501.0611380295043Q1720.1074611651854 506.06017483865077 1710.7451032104834 508.7475183256486Q1701.3827452557814 511.4637579791733 1692.2515566332943 511.4637579791733Z " fill="#2a1a5e" transform="matrix(0.5048977713496812,0,0,0.5048977713496812,0,79.63042636936794)"/></g></svg>